<?xml version="1.0" encoding="UTF-8"?>
<svg width="258px" height="258px" viewBox="0 0 258 258" version="1.1" xmlns="http://www.w3.org/2000/svg" xmlns:xlink="http://www.w3.org/1999/xlink">
    <g id="lisprocoin-logo" stroke="none" stroke-width="1" fill="none" fill-rule="evenodd">
        <circle cx="129" cy="129" r="120" fill="#FFFFFF"/>
        <path d="M129,9 C194.722,9 248,62.278 248,128 C248,193.722 194.722,247 129,247 C63.278,247 10,193.722 10,128 C10,62.278 63.278,9 129,9 Z" id="circle" fill="#FFFFFF"/>
        <path d="M79.5,183.5 C92.9,191.5 108.5,198 129,198 C149.5,198 173.5,185.5 188.5,173.5 C203.5,161.5 213,149.5 217,144 C173,168 147,146 131,142 C115,138 91.5,145.5 67,134 C42.5,122.5 61,87.5 78,71.5 C95,55.5 110,47 129,47 C148,47 162,55.5 178.5,71.5 C195,87.5 212,110 221,119 C164.5,79 153,116 129,116 C105,116 93,100 79.5,114 C66,128 66,175.5 79.5,183.5 Z" id="wave-yellow" fill="#FFDE59"/>
        <path d="M79.5,143.5 C96,152 112,155 129,155 C146,155 167.5,139.5 182.5,127.5 C197.5,115.5 212.5,99 217,94 C173,118 145,96 129,92 C113,88 84,93 67,81.5 C50,70 55,49 78,33 C101,17 110,9 129,9 C148,9 162,17.5 178.5,33.5 C195,49.5 213,72.5 221,81.5 C164.5,41.5 153,75 129,75 C105,75 93,62 79.5,76 C66,90 63,135 79.5,143.5 Z" id="wave-blue" fill="#00A7E7"/>
        <text font-family="Arial, sans-serif" font-size="44" font-weight="bold" fill="#00A7E7" text-anchor="middle" x="129" y="230">
            Lisprocoin
        </text>
    </g>
</svg>
